<svg xmlns="http://www.w3.org/2000/svg" xmlns:xlink="http://www.w3.org/1999/xlink" width="500" zoomAndPan="magnify" viewBox="0 0 375 374.999991" height="500" preserveAspectRatio="xMidYMid meet" version="1.0"><defs><g/><clipPath id="af1cd6f933"><path d="M 37.5 298.976562 L 296.867188 298.976562 L 296.867188 317 L 37.5 317 Z M 37.5 298.976562 " clip-rule="nonzero"/></clipPath><clipPath id="ec7f026b6f"><path d="M 46.570312 298.976562 L 287.359375 298.976562 C 292.367188 298.976562 296.429688 303.035156 296.429688 308.042969 C 296.429688 313.050781 292.367188 317.113281 287.359375 317.113281 L 46.570312 317.113281 C 41.558594 317.113281 37.5 313.050781 37.5 308.042969 C 37.5 303.035156 41.558594 298.976562 46.570312 298.976562 " clip-rule="nonzero"/></clipPath><clipPath id="f582b75724"><path d="M 254.996094 280 L 337.496094 280 L 337.496094 336 L 254.996094 336 Z M 254.996094 280 " clip-rule="nonzero"/></clipPath></defs><g clip-path="url(#af1cd6f933)"><g clip-path="url(#ec7f026b6f)"><path fill="#ff3131" d="M 37.5 298.976562 L 296.355469 298.976562 L 296.355469 316.878906 L 37.5 316.878906 Z M 37.5 298.976562 " fill-opacity="1" fill-rule="nonzero"/></g></g><g fill="#ff3131" fill-opacity="1"><g transform="translate(44.962622, 267.392527)"><g><path d="M 109.472656 -63.410156 L 158.949219 -63.410156 C 150.417969 -36.113281 128.808594 -21.324219 96.394531 -21.324219 C 59.996094 -21.324219 30.425781 -52.886719 30.425781 -91.558594 C 30.425781 -130.230469 59.996094 -161.792969 96.394531 -161.792969 C 119.710938 -161.792969 141.320312 -148.429688 153.261719 -126.820312 L 174.589844 -138.476562 C 158.382812 -168.050781 128.523438 -186.246094 96.394531 -186.246094 C 46.347656 -186.246094 5.972656 -143.878906 5.972656 -91.558594 C 5.972656 -39.523438 46.347656 3.128906 96.394531 3.128906 C 120.277344 3.128906 141.320312 -3.695312 156.960938 -16.777344 C 172.882812 -30.425781 182.835938 -49.761719 186.246094 -74.214844 L 188.238281 -87.863281 L 109.472656 -87.863281 Z M 109.472656 -63.410156 "/></g></g></g><g fill="#ffffff" fill-opacity="1"><g transform="translate(201.73647, 266.521267)"><g><path d="M 117.65625 -63.890625 C 117.65625 -61.742188 116.253906 -58.613281 113.453125 -54.5 C 110.660156 -50.394531 106.425781 -42.789062 100.75 -31.6875 C 95.082031 -20.59375 92.25 -13.601562 92.25 -10.71875 C 92.25 -7.84375 93.398438 -6.40625 95.703125 -6.40625 C 98.660156 -6.40625 102.8125 -8.832031 108.15625 -13.6875 C 113.5 -18.539062 118.144531 -23.269531 122.09375 -27.875 C 126.039062 -32.476562 128.257812 -35.273438 128.75 -36.265625 C 129.082031 -35.765625 129.25 -35.019531 129.25 -34.03125 C 129.25 -33.050781 128.179688 -31.160156 126.046875 -28.359375 C 112.234375 -9.785156 99.160156 -0.00390625 86.828125 0.984375 C 84.847656 1.148438 83.117188 0.78125 81.640625 -0.125 C 80.160156 -1.03125 79.421875 -2.265625 79.421875 -3.828125 C 79.421875 -5.390625 79.832031 -7.441406 80.65625 -9.984375 C 81.476562 -12.535156 82.300781 -14.71875 83.125 -16.53125 C 86.570312 -24.257812 89.816406 -31 92.859375 -36.75 C 95.898438 -42.507812 99.066406 -49.003906 102.359375 -56.234375 C 104.003906 -59.691406 102.851562 -60.347656 98.90625 -58.203125 C 88.382812 -51.628906 77.453125 -40.453125 66.109375 -24.671875 C 60.347656 -16.941406 56.644531 -10.113281 55 -4.1875 C 52.695312 -2.21875 50.679688 -1.5625 48.953125 -2.21875 C 47.234375 -2.875 46.375 -4.554688 46.375 -7.265625 C 46.375 -9.984375 49.085938 -17.265625 54.515625 -29.109375 C 60.097656 -39.960938 64.535156 -49.003906 67.828125 -56.234375 C 69.472656 -59.691406 68.320312 -60.347656 64.375 -58.203125 C 58.945312 -54.753906 52.492188 -49.25 45.015625 -41.6875 C 37.535156 -34.125 32.066406 -26.394531 28.609375 -18.5 C 27.128906 -15.039062 24.5 -8.707031 20.71875 0.5 C 19.726562 0.5 17.796875 1.03125 14.921875 2.09375 C 12.046875 3.164062 10.359375 3.703125 9.859375 3.703125 C 9.203125 3.703125 9.242188 2.921875 9.984375 1.359375 C 10.722656 -0.203125 12.117188 -3.445312 14.171875 -8.375 C 16.234375 -13.3125 18.742188 -19.5625 21.703125 -27.125 C 27.460938 -41.601562 31.328125 -51.144531 33.296875 -55.75 C 24.578125 -46.375 16.6875 -37 9.625 -27.625 C 8.46875 -25.976562 7.890625 -26.144531 7.890625 -28.125 C 7.890625 -29.4375 8.300781 -30.585938 9.125 -31.578125 C 20.800781 -46.046875 29.765625 -57.800781 36.015625 -66.84375 C 44.234375 -68 49 -69.148438 50.3125 -70.296875 C 51.632812 -71.453125 52.457031 -72.03125 52.78125 -72.03125 C 53.113281 -72.03125 53.320312 -71.695312 53.40625 -71.03125 C 53.488281 -70.375 52.992188 -69.425781 51.921875 -68.1875 C 50.847656 -66.957031 44.394531 -55.328125 32.5625 -33.296875 C 33.539062 -34.453125 37.894531 -39.382812 45.625 -48.09375 C 49.40625 -52.039062 54.257812 -56.234375 60.1875 -60.671875 C 66.925781 -65.609375 72.765625 -68.078125 77.703125 -68.078125 C 80.828125 -68.078125 82.390625 -66.84375 82.390625 -64.375 C 82.390625 -62.238281 81.484375 -59.851562 79.671875 -57.21875 L 68.578125 -36.5 L 80.15625 -48.09375 C 83.945312 -52.039062 88.800781 -56.234375 94.71875 -60.671875 C 101.457031 -65.609375 106.960938 -68.078125 111.234375 -68.078125 C 115.515625 -68.078125 117.65625 -66.679688 117.65625 -63.890625 Z M 117.65625 -63.890625 "/></g></g></g><g clip-path="url(#f582b75724)"><path fill="#ff3131" d="M 256.851562 315.90625 C 261.234375 323.078125 267.070312 337.804688 292.621094 335.460938 C 317.277344 333.195312 336.667969 322.023438 337.460938 309.53125 C 337.464844 309.691406 337.480469 309.847656 337.476562 310.007812 C 337.476562 309.875 337.484375 309.746094 337.480469 309.617188 C 337.488281 309.382812 337.480469 309.148438 337.476562 308.914062 C 337.480469 308.664062 337.488281 308.417969 337.480469 308.171875 C 337.488281 307.953125 337.480469 307.738281 337.476562 307.523438 C 337.480469 307.296875 337.488281 307.066406 337.480469 306.839844 C 337.488281 306.640625 337.476562 306.445312 337.476562 306.246094 C 337.476562 306.417969 337.457031 306.589844 337.445312 306.761719 C 336.539062 294.957031 317.195312 282.976562 292.621094 280.855469 C 267.070312 278.652344 261.683594 292.8125 256.851562 299.226562 C 253.28125 303.964844 245.78125 303.511719 245.78125 303.511719 C 245.78125 303.511719 239.597656 303.1875 226.425781 302.164062 C 213.816406 301.191406 147.8125 295.589844 135.835938 295.589844 C 124.582031 295.589844 114.097656 294.296875 113.304688 304.914062 C 113.292969 304.792969 113.273438 304.679688 113.273438 304.554688 L 113.269531 304.339844 C 113.257812 304.75 113.257812 305.175781 113.273438 305.617188 C 113.257812 306.09375 113.25 306.582031 113.273438 307.105469 L 113.273438 307.15625 C 113.269531 307.421875 113.257812 307.6875 113.261719 307.972656 C 113.269531 307.765625 113.285156 307.574219 113.292969 307.378906 C 114.097656 320.039062 134.152344 317.511719 134.152344 317.511719 C 134.152344 317.511719 213.179688 313.421875 226.351562 312.453125 C 240.601562 311.402344 245.78125 311.273438 245.78125 311.273438 C 245.78125 311.273438 253.6875 310.738281 256.851562 315.90625 " fill-opacity="1" fill-rule="nonzero"/></g></svg>