<?xml version="1.0" encoding="UTF-8" standalone="no"?>
<!-- Created with Inkscape (http://www.inkscape.org/) -->

<svg
   width="205.29166mm"
   height="205.29169mm"
   viewBox="0 0 205.29166 205.29169"
   version="1.1"
   id="svg296"
   xmlns="http://www.w3.org/2000/svg"
   xmlns:svg="http://www.w3.org/2000/svg">
  <defs
     id="defs293" />
  <g
     id="layer1"
     transform="translate(-3.0315853,-35.676742)">
    <path
       style="fill:none;stroke:#ffffff;stroke-width:5.29167;paint-order:stroke markers fill"
       id="rect475"
       width="200"
       height="200"
       x="5.6774201"
       y="38.322578"
       d="M 12.292003,38.322578 H 199.06284 a 6.6145833,6.6145833 45 0 1 6.61458,6.614584 V 231.708 a 6.6145833,6.6145833 135 0 1 -6.61458,6.61458 H 12.292003 A 6.6145833,6.6145833 45 0 1 5.6774201,231.708 V 44.937162 a 6.6145833,6.6145833 135 0 1 6.6145829,-6.614584 z" />
    <g
       aria-label="ds"
       id="text533"
       style="font-size:176.389px;font-family:serif;-inkscape-font-specification:serif;fill:#ffffff;fill-opacity:1;stroke:#000000;stroke-width:0;paint-order:stroke markers fill">
      <g
         id="path1895"
         style="fill:#ffffff;fill-opacity:1">
        <path
           style="color:#000000;-inkscape-font-specification:serif;fill:#ffffff;fill-opacity:1;stroke:none;-inkscape-stroke:none"
           d="m 89.268874,174.58047 c -3.847021,4.01928 -7.607927,6.91891 -11.282695,8.69887 -3.674767,1.72255 -7.636637,2.58383 -11.885587,2.58383 -8.612736,0 -16.134548,-3.58865 -22.565391,-10.76593 -6.430843,-7.2347 -9.646274,-16.50777 -9.646274,-27.81917 0,-11.31139 3.559941,-21.6467 10.679803,-31.00588 7.119862,-9.41659 16.278099,-14.1249 27.474655,-14.1249 6.947607,0 12.689448,2.21061 17.225489,6.63181 V 94.223566 c 0,-9.014664 -0.229673,-14.55554 -0.689019,-16.622597 -0.401928,-2.067057 -1.062239,-3.473808 -1.980931,-4.220245 -0.918692,-0.746437 -2.067061,-1.119657 -3.445098,-1.119657 -1.492875,0 -3.47381,0.459348 -5.942794,1.37804 l -1.119657,-3.014461 23.512793,-9.646274 h 3.875732 v 91.208968 c 0,9.24434 0.20096,14.90005 0.60289,16.9671 0.45935,2.00964 1.14837,3.41639 2.06706,4.22025 0.97611,0.80385 2.09577,1.20578 3.35897,1.20578 1.55029,0 3.61736,-0.48805 6.20118,-1.46416 l 0.9474,3.01446 -23.426663,9.7324 h -3.961863 z m 0,-6.02892 V 127.8994 c -0.344509,-3.90444 -1.37804,-7.46439 -3.100588,-10.67981 -1.722547,-3.21542 -4.019283,-5.62699 -6.890195,-7.2347 -2.813494,-1.66513 -5.569578,-2.4977 -8.268235,-2.4977 -5.052805,0 -9.56015,2.26803 -13.522009,6.80407 -5.225059,5.97149 -7.837597,14.69909 -7.837597,26.18274 0,11.59849 2.52641,20.49834 7.579215,26.69951 5.052805,6.14375 10.679809,9.21564 16.880979,9.21564 5.22506,0 10.27788,-2.61254 15.15843,-7.8376 z"
           id="path1902" />
        <path
           style="color:#000000;-inkscape-font-specification:serif;fill:#ffffff;fill-opacity:1;stroke:none;-inkscape-stroke:none"
           d="m 89.268874,174.58047 q -5.770538,6.02892 -11.282695,8.69887 -5.512156,2.58383 -11.885587,2.58383 -12.919117,0 -22.565391,-10.76593 -9.646274,-10.85206 -9.646274,-27.81917 0,-16.9671 10.679803,-31.00588 10.679804,-14.1249 27.474655,-14.1249 10.421421,0 17.225489,6.63181 V 94.223566 q 0,-13.522009 -0.689019,-16.622597 -0.602892,-3.100588 -1.980931,-4.220245 -1.37804,-1.119657 -3.445098,-1.119657 -2.239314,0 -5.942794,1.37804 l -1.119657,-3.014461 23.512793,-9.646274 h 3.875732 v 91.208968 q 0,13.86652 0.60289,16.9671 0.68902,3.01446 2.06706,4.22025 1.46417,1.20578 3.35897,1.20578 2.32544,0 6.20118,-1.46416 l 0.9474,3.01446 -23.426663,9.7324 h -3.961863 z m 0,-6.02892 V 127.8994 q -0.516764,-5.85667 -3.100588,-10.67981 -2.583823,-4.82313 -6.890195,-7.2347 -4.220245,-2.4977 -8.268235,-2.4977 -7.579215,0 -13.522009,6.80407 -7.837597,8.95725 -7.837597,26.18274 0,17.39775 7.579215,26.69951 7.579215,9.21564 16.880979,9.21564 7.837598,0 15.15843,-7.8376 z"
           id="path1904" />
      </g>
      <g
         id="path1897"
         style="fill:#ffffff;fill-opacity:1">
        <path
           style="color:#000000;-inkscape-font-specification:serif;fill:#ffffff;fill-opacity:1;stroke:none;-inkscape-stroke:none"
           d="m 172.72637,102.23342 v 26.87176 h -2.84221 c -2.18189,-8.44048 -4.99539,-14.18232 -8.44049,-17.22549 -3.38768,-3.04316 -7.72277,-4.56475 -13.00524,-4.56475 -4.01928,0 -7.26342,1.06224 -9.7324,3.18671 -2.46898,2.12448 -3.70348,4.47863 -3.70348,7.06245 0,3.21542 0.9187,5.97151 2.75608,8.26824 1.77996,2.35414 5.39732,4.85185 10.85205,7.49309 l 12.57461,6.11504 c 11.6559,5.68441 17.48387,13.17751 17.48387,22.47927 0,7.17728 -2.72737,12.97654 -8.1821,17.39774 -5.39731,4.36379 -11.45496,6.54569 -18.1729,6.54569 -4.82313,0 -10.3353,-0.86128 -16.53647,-2.58383 -1.8948,-0.57418 -3.44509,-0.86127 -4.65088,-0.86127 -1.32062,0 -2.35415,0.74644 -3.10059,2.23931 h -2.8422 v -28.16367 h 2.8422 c 1.60771,8.03855 4.6796,14.09619 9.21564,18.17289 4.53604,4.0767 9.61757,6.11505 15.24456,6.11505 3.96186,0 7.17729,-1.14837 9.64627,-3.4451 2.5264,-2.35414 3.78961,-5.16765 3.78961,-8.44049 0,-3.96186 -1.40675,-7.29212 -4.22024,-9.99078 -2.75608,-2.69866 -8.29695,-6.11505 -16.6226,-10.24917 -8.32565,-4.13411 -13.7804,-7.86631 -16.36422,-11.19657 -2.58382,-3.27284 -3.87573,-7.40696 -3.87573,-12.40235 0,-6.48826 2.21061,-11.9143 6.63181,-16.27809 4.47862,-4.36378 10.24917,-6.54568 17.31162,-6.54568 3.10058,0 6.86149,0.66031 11.28269,1.98093 2.92833,0.86127 4.88056,1.29191 5.85667,1.29191 0.91869,0 1.63642,-0.20096 2.15319,-0.60289 0.51676,-0.40193 1.11965,-1.29191 1.80867,-2.66995 z"
           id="path1908" />
        <path
           style="color:#000000;-inkscape-font-specification:serif;fill:#ffffff;fill-opacity:1;stroke:none;-inkscape-stroke:none"
           d="m 172.72637,102.23342 v 26.87176 h -2.84221 q -3.27284,-12.66073 -8.44049,-17.22549 -5.08152,-4.56475 -13.00524,-4.56475 -6.02892,0 -9.7324,3.18671 -3.70348,3.18672 -3.70348,7.06245 0,4.82314 2.75608,8.26824 2.66995,3.53122 10.85205,7.49309 l 12.57461,6.11504 q 17.48387,8.52662 17.48387,22.47927 0,10.76593 -8.1821,17.39774 -8.09598,6.54569 -18.1729,6.54569 -7.2347,0 -16.53647,-2.58383 -2.8422,-0.86127 -4.65088,-0.86127 -1.98093,0 -3.10059,2.23931 h -2.8422 v -28.16367 h 2.8422 q 2.41157,12.05784 9.21564,18.17289 6.80407,6.11505 15.24456,6.11505 5.94279,0 9.64627,-3.4451 3.78961,-3.53122 3.78961,-8.44049 0,-5.94279 -4.22024,-9.99078 -4.13412,-4.04799 -16.6226,-10.24917 -12.48848,-6.20117 -16.36422,-11.19657 -3.87573,-4.90926 -3.87573,-12.40235 0,-9.7324 6.63181,-16.27809 6.71794,-6.54568 17.31162,-6.54568 4.65088,0 11.28269,1.98093 4.3925,1.29191 5.85667,1.29191 1.37804,0 2.15319,-0.60289 0.77514,-0.60289 1.80867,-2.66995 z"
           id="path1910" />
      </g>
    </g>
  </g>
</svg>
